<?xml version="1.0" encoding="UTF-8" standalone="no"?>
<svg
   version="1.2"
   viewBox="0 0 2815.5 1220.4"
   width="2815.5"
   height="1220.4"
   id="svg25"
   sodipodi:docname="2.svg"
   inkscape:version="1.2 (dc2aedaf03, 2022-05-15)"
   xmlns:inkscape="http://www.inkscape.org/namespaces/inkscape"
   xmlns:sodipodi="http://sodipodi.sourceforge.net/DTD/sodipodi-0.dtd"
   xmlns="http://www.w3.org/2000/svg"
   xmlns:svg="http://www.w3.org/2000/svg">
  <sodipodi:namedview
     id="namedview27"
     pagecolor="#ffffff"
     bordercolor="#000000"
     borderopacity="0.25"
     inkscape:showpageshadow="2"
     inkscape:pageopacity="0.0"
     inkscape:pagecheckerboard="0"
     inkscape:deskcolor="#d1d1d1"
     showgrid="false"
     inkscape:zoom="0.40333333"
     inkscape:cx="1330.1653"
     inkscape:cy="572.72727"
     inkscape:window-width="1920"
     inkscape:window-height="1009"
     inkscape:window-x="-8"
     inkscape:window-y="-8"
     inkscape:window-maximized="1"
     inkscape:current-layer="svg25" />
  <defs
     id="defs17">
    <linearGradient
       id="P"
       gradientUnits="userSpaceOnUse" />
    <linearGradient
       id="g1"
       x1="2251336"
       y1="558204.12"
       x2="5146745"
       y2="529287.12"
       href="#P"
       gradientTransform="matrix(1.5188912,0,0,0.658375,-1236,-289.3)"
       gradientUnits="userSpaceOnUse">
      <stop
         stop-color="#00c5e9"
         id="stop3" />
      <stop
         offset=".6"
         stop-color="#003bff"
         id="stop5" />
      <stop
         offset="1"
         stop-color="#d654ff"
         id="stop7" />
    </linearGradient>
    <linearGradient
       id="g2"
       x1="1507"
       y1="207.89999"
       x2="3070.2"
       y2="192.39999"
       href="#P">
      <stop
         stop-color="#00c5e9"
         id="stop10" />
      <stop
         offset=".6"
         stop-color="#003bff"
         id="stop12" />
      <stop
         offset="1"
         stop-color="#d654ff"
         id="stop14" />
    </linearGradient>
  </defs>
  <style
     id="style19">.a{opacity:.1;fill:url(#g1)}.b{mix-blend-mode:screen;fill:url(#g2)}</style>
  <path
     fill-rule="evenodd"
     class="a"
     d="M 2815.5,853.89999 V 1030.9 l -153.3,88.5 -141.9,-81.9 -8.6,-5 -139,-80.20001 -5.7,-3.3 -144.7,83.50001 -8.6,5 V 853.89999 l 141.4,-81.7 L 2213.7,690.6 V 527.2 l -136.1,78.6 v 162.89999 l 6.1,3.5 -6.1,3.5 v 166.7 h -11.5 v -166.6 L 1924.3,693.9 l -135.7,78.29999 0.8,0.5 129.2,74.5 11.4,6.7 V 1030.9 l -11.4,6.6 -131.2,75.7 -10.7,6.2 -10.7,-6.2 -131.2,-75.7 -0.4,164.9 v 18 H 1623 v -18.4 -13.2 l 0.4,-157 v -4.3 -166.50001 l -136.2,-78.6 v 163.3 l -39.7,22.9 -102.1,59.00001 -17.2,9.9 -131.2,75.7 -10.6,6.2 -10.7,-6.2 -131.2,-75.7 -5.7,-3.3 -5.7,3.3 -131.20004,75.7 -5,2.9 -5.7,3.3 -10.69996,-6.2 -131.2,-75.7 -5.7,-3.3 -5.7,3.3 -131.2,75.7 -7.8,4.5 -5.7,-9.9 8.6,-4.9 129.6,-74.9 6.5,-3.7 V 853.89999 l 11.4,-6.7 130,-75 -130,-74.99999 -5.7,-3.3 -141.8,81.89999 v 169.9 l -39.8,22.9 -110.7,63.90001 -8.6,5 V 860.99999 l -5.3,-3.1 -130.8,-75.5 -17.2,-9.9 10.7,-6.2 L 435.8,688 l 12.7,-7.4 12.6,7.4 129.2,74.49999 v -0.5 l 5.7,3.3 5.8,-3.3 v 0.5 L 731,688 l 6.9,-4.1 V 520.6 L 596,438.7 l -135.7,78.4 0.8,0.4 129.2,74.6 11.5,6.6 v 13.7 l -16.8,-9.7 -130.8,-75.4 -5.7,-3.4 -5.8,3.4 -130.7,75.4 -16.8,9.7 v -13.7 l 11.4,-6.6 129.2,-74.6 0.8,-0.4 -141.4,-81.7 V 265.5 L 159,186.9 153.3,183.6 11.4,265.5 V 474.7 H 0 V 88.5 L 153.3,0 300.9,85.2 448.5,0 596,85.2 738.3,3.1 743.6,0 749.7,3.5 891.19996,85.2 1038.8,0 1186.4,85.2 1333.9,0 1481.5,85.2 1629.1,0 1776.7,85.2 1924.3,0 2071.9,85.2 2219.4,0 l 153.3,88.5 144.8,83.5 -5.8,10 -139,-80.3 v 156.7 l 147.6,85.2 v 169.9 l 136.2,78.6 V 346.9 h 11.4 V 768.69999 Z M 607.9,262 l 0.8,0.4 129.2,74.6 v 7.5 l -5.3,3.1 -130.8,-75.5 v 156.7 l 6.9,4 129.2,74.6 V 358.2 l 5.7,-3.3 5.8,3.3 v 149.2 l 129.2,-74.6 12.59996,-7.3 12.7,7.3 L 1033.1,507.4 V 358.2 l 11.4,-6.6 v 155.8 l 136.2,-78.6 V 272.1 l -136.2,78.6 V 337 l 129.2,-74.6 0.8,-0.4 -135.7,-78.4 -141.90004,81.9 v 6.6 l -5.7,-3.3 -5.7,3.3 v -6.6 L 749.4,186.9 l -5.8,-3.3 z m 879.4,337.7 v -7.5 l 0.2,-0.1 129,-74.5 6.9,-4 V 350.8 l -5.4,-3.1 -130.7,-75.5 v 163.3 l -7.1,4.1 -4.4,2.5 -130,75 74,42.7 56,32.4 v 7.5 l -5.3,3.1 -130.8,-75.5 V 684 l 6.9,4 129.2,74.59999 V 613.4 l 5.8,-3.3 5.7,3.3 V 762.59999 L 1616.5,688 l 12.6,-7.3 5.8,3.3 136.1,78.59999 V 605.9 l -136.1,-78.6 -5.8,-3.3 -5.7,3.3 -130.8,75.5 z m -313.5,172.99999 0.8,-0.5 L 1036,692.2 l 2.9,-4.9 h -5.7 v -160 l -130.80004,75.5 -5.4,3.1 v 162.79999 l 6.1,3.5 -6.1,3.6 v 163.3 l 7,4 L 1033.2,1017.7 V 868.49999 l 5.7,-3.3 5.7,3.3 V 1017.7 l 129.2,-74.60001 6.9,-4 v -156.7 l -130.7,75.5 -5.4,-3.1 v -7.5 z m -731,75.1 5.3,3 6.2,-3.5 129.2,-74.6 0.8,-0.5 L 448.6,693.9 l -136.2,78.59999 0.8,0.4 z m 147.6,-65.3 -130.8,75.5 -5.3,3.1 V 1017.8 l 102.1,-59.00001 27.1,-15.6 6.9,-4 z M 2520.4,684.1 2656.5,762.69999 V 605.4 L 2520.4,526.9 Z M 2372.8,428.9 2509,507.5 V 350.3 l -136.2,-78.6 z m 0,333.69999 L 2509,684 V 527.3 l -136.2,78.6 z M 2362.7,441.4 l -131.3,75.8 135.7,78.3 135.7,-78.3 -135.7,-78.4 z m -137.5,-267.5 136.2,78.6 V 95.3 L 2225.2,16.6 Z m -147.5,78.6 136.1,-78.6 V 16.7 l -136.1,78.6 z m -737.9,594.99999 129.2,-74.6 0.7,-0.5 L 1334,694.1 1192.2,775.99999 v 163.3 l 6.9,4 129.2,74.60001 V 854.09999 Z M 756.4,517.8 l 129.19996,74.6 5.8,3.3 5.7,-3.3 129.20004,-74.6 0.8,-0.5 L 891.39996,439 755.7,517.3 Z m 878.5,-330.6 -5.7,-3.3 -135.7,78.3 0.8,0.5 129.2,74.6 5.7,3.3 5.7,-3.3 130,-75.1 z m 289.4,-3.3 -135.7,78.4 0.8,0.4 129.2,74.6 5.7,3.3 5.7,-3.3 130,-75 -130,-75.1 z m -5.7,167.1 -5.3,-3.1 -130.8,-75.5 v 156.8 l 6.9,4 129.2,74.5 z m -874,333.3 6.9,4 129.2,74.59999 V 599.1 l 11.5,-6.6 129.1,-74.6 0.8,-0.5 -135.7,-78.3 -141.8,81.9 z m 147.6,-411.9 v 156.8 l 6.9,4 129.2,74.5 V 351 l -5.4,-3.1 z M 1339.8,351 V 507.8 L 1476,429.2 V 272.4 Z M 1192.2,762.89999 1328.3,684.3 V 527.6 l -136.1,78.6 z M 1771.1,429.2 V 272.5 l -136.2,78.6 v 156.7 z m -437,-245.3 -135.7,78.4 0.8,0.4 129.2,74.6 5.7,3.3 5.7,-3.3 129.2,-74.6 0.8,-0.4 z m 442.7,411.8 135,-77.9 0.7,-0.4 -135.7,-78.4 -135.7,78.4 0.8,0.4 z M 2066.3,429.1 V 272.4 l -130.8,75.5 -5.4,3.1 v 156.7 l 129.7,-74.8 z m -136.2,-255.2 136.2,78.6 V 95.3 L 1930.1,16.7 Z m -147.6,78.6 136.2,-78.6 V 16.7 l -136.2,78.6 z m -147.5,-78.6 6.5,3.8 129.6,74.8 V 95.3 L 1766.2,92.5 1635,16.7 Z m -142.7,-81.4 -4.9,2.8 v 157.2 l 129.6,-74.8 6.5,-3.8 V 16.7 Z m -152.5,81.5 6.5,3.7 129.7,74.9 V 95.4 l -5,-2.9 -131.2,-75.7 z m -142.6,-81.5 -5,2.9 v 157.2 l 129.7,-74.9 6.5,-3.7 V 16.8 Z m -152.5,81.4 6.5,3.8 129.6,74.8 V 95.3 l -4.9,-2.8 -131.2,-75.8 z M 897.09996,252.5 1033.2,173.9 V 16.7 L 897.09996,95.3 Z M 749.5,173.9 885.59996,252.5 V 95.3 L 749.9,16.9 749.5,16.7 Z m -142.7,-81.5 -4.9,2.9 v 157.2 l 129.6,-74.9 6.6,-3.7 V 16.7 Z m -152.6,81.4 6.6,3.8 129.6,74.8 V 95.2 L 585.5,92.4 454.2,16.6 Z m 130,88.3 -135.7,-78.4 -5.7,3.3 -130,75.1 130,75 5.7,3.3 5.7,-3.3 129.2,-74.6 z M 442.8,350.9 306.7,272.3 V 429 l 136.1,78.6 z M 306.7,252.5 442.8,173.9 V 16.7 L 306.7,95.3 Z m -295.2,0 136.1,-78.6 V 16.7 L 11.5,95.3 Z m 283.7,0 V 95.3 L 159.1,16.7 v 157.2 z m 295.1,19.8 -130.7,75.5 -5.4,3.1 v 156.7 l 129.2,-74.6 6.9,-4 z M 885.49996,762.69999 V 606 L 880.1,602.9 749.4,527.4 v 156.7 l 6.9,4 z M 749.4,1017.9 l 129.2,-74.60001 6.89996,-4 v -156.7 l -130.79996,75.5 -5.3,3.1 z m 277.2,10.3 0.8,-0.4 L 891.19996,949.19999 755.1,1027.8 l 0.8,0.4 129.59996,74.9 5.7,3.3 5.8,-3.3 z m 295.1,0 0.8,-0.5 -136.1,-78.60001 -136.2,78.60001 0.8,0.5 129.7,74.8 5.7,3.3 5.7,-3.3 z m 154.1,-245.70001 -136.1,78.7 V 1017.9 l 102.1,-59.00001 34,-19.6 z m 147.6,64.8 5.7,3.4 5.7,-3.4 129.2,-74.5 0.8,-0.5 L 1629.1,694 l -135.7,78.29999 0.8,0.5 z m 11.4,170.40001 129.2,-74.60001 7,-4 v -156.7 l -130.8,75.5 -5.4,3.1 z m 277.2,10.3 0.8,-0.4 -136.1,-78.60001 -136.2,78.60001 0.8,0.4 129.7,74.9 5.7,3.3 5.7,-3.3 z M 1782.4,782.29999 v 156.7 l 6.9,4 129.2,74.60001 V 860.89999 l -5.3,-3.1 z M 1918.5,527.2 l -130.8,75.5 -5.3,3.1 V 762.49999 L 1911.6,687.9 l 6.9,-4 z m 147.6,78.6 -5.4,-3.1 -130.8,-75.5 v 156.7 l 7,4 129.2,74.59999 z m 141.4,-88.8 -114,-65.8 -20.9,-12 -0.8,-0.5 -135.7,78.3 0.8,0.5 134.9,77.9 z m 11.9,-6.8 5.7,-3.4 v 0.5 l 115.2,-66.4 20.9,-12.1 V 272 l -147.5,85.2 v -13.7 l 141.4,-81.6 -135.7,-78.4 -141.9,81.9 v 163.4 l 136.2,78.5 v -0.5 z m 141.8,272.19999 -136.1,78.6 V 1017.7 l 136.1,-78.60001 z M 2361.2,605.9 2225.1,527.3 V 684 l 136.1,78.59999 z m 147.6,255.09999 -136.1,-78.6 v 156.7 L 2508.8,1017.7 Z m 141.4,-88.8 -135.7,-78.29999 -135.7,78.29999 135.7,78.4 z m -130,245.40001 136.2,-78.60001 v -156.7 l -136.2,78.6 z m 278,9.9 -136.1,-78.60001 -136.2,78.60001 136.2,78.6 z m 5.7,-167.10001 -136.1,-78.6 v 157.2 L 2803.9,1017.6 Z"
     id="path21"
     style="fill:url(#g1)" />
</svg>
