<?xml version="1.0" encoding="UTF-8" standalone="no"?>
<svg
   xml:space="preserve"
   width="467.39999"
   height="467.39999"
   version="1.1"
   id="svg6"
   sodipodi:docname="favicon.svg"
   inkscape:version="1.2 (dc2aedaf03, 2022-05-15)"
   xmlns:inkscape="http://www.inkscape.org/namespaces/inkscape"
   xmlns:sodipodi="http://sodipodi.sourceforge.net/DTD/sodipodi-0.dtd"
   xmlns="http://www.w3.org/2000/svg"
   xmlns:svg="http://www.w3.org/2000/svg"><defs
     id="defs10" /><sodipodi:namedview
     id="namedview8"
     pagecolor="#ffffff"
     bordercolor="#000000"
     borderopacity="0.25"
     inkscape:showpageshadow="2"
     inkscape:pageopacity="0.0"
     inkscape:pagecheckerboard="0"
     inkscape:deskcolor="#d1d1d1"
     showgrid="false"
     showborder="false"
     inkscape:zoom="0.88682072"
     inkscape:cx="99.794691"
     inkscape:cy="236.80096"
     inkscape:window-width="1920"
     inkscape:window-height="1009"
     inkscape:window-x="-8"
     inkscape:window-y="-8"
     inkscape:window-maximized="1"
     inkscape:current-layer="svg6" /><path
     style="display:inline;fill:#f2f2f2;fill-opacity:1;stroke-width:0.777042"
     id="path2571"
     sodipodi:type="arc"
     sodipodi:cx="233.7"
     sodipodi:cy="233.7"
     sodipodi:rx="233.5"
     sodipodi:ry="233.5"
     sodipodi:start="0"
     sodipodi:end="6.2636639"
     sodipodi:open="true"
     sodipodi:arc-type="arc"
     d="M 467.2,233.7 A 233.5,233.5 0 0 1 234.83955,467.19722 233.5,233.5 0 0 1 0.21111979,235.97909 233.5,233.5 0 0 1 230.28143,0.22502309 233.5,233.5 0 0 1 467.15551,229.14204" /><path
     d="M 299.3,83.347836 V 121.0359 c 45.2,23.44501 76.08,70.5751 76.08,124.8267 0,77.53659 -63.04,140.51006 -140.48,140.51006 -55.6,0 -103.68,-32.40693 -126.48,-79.37698 l 57.68,-36.56782 92,27.92597 75.28,-58.81258 13.04,16.56354 10.4,-56.97218 -57.6,-3.04065 13.04,16.56354 -61.28,47.6902 -90,-27.28584 -63.920003,40.48866 -30.56,19.36415 c 3.12,11.28241 7.44,22.16474 12.8,32.56696 C 108.34,381.97172 167.14,420.7 234.9,420.7 c 96.4,0 174.8,-78.49679 174.8,-174.8374 0,-73.69576 -45.84,-136.82927 -110.4,-162.514764 z"
     style="fill:#061962;stroke-width:0.800085"
     id="path2" /><path
     d="m 152.9,210.73509 41.12,11.84253 V 99.511294 H 132.26 V 221.29735 l 17.92,-11.36243 z m 123.76,-2.88062 V 46.699997 H 210.18 V 228.0988 l 29.12,8.8819 z M 116.1,148.80184 H 57.699997 V 268.42743 L 116.02,231.45952 Z"
     style="fill:#f1b70e;stroke-width:0.800085"
     id="path4" /></svg>
