<svg xmlns="http://www.w3.org/2000/svg" width="1024" height="1024"><path fill="#fcd535" d="M466.88 22.373c15.524-16.24 38.813-27.771 61.16-19.77 12.467 4.707 23.288 12.71 32.462 22.123 88.683 89.904 178.777 178.63 266.99 269.005 18.112 17.18 40.46 35.067 43.988 61.426 3.529 22.359-11.526 41.422-26.346 56.249-28.463 27.065-55.045 55.778-83.743 82.608-22.112-20.946-43.283-43.07-64.924-64.486 16.466-27.065 43.988-45.187 64.218-69.193-84.448-81.196-165.133-165.922-248.641-248.059-82.802 82.608-165.134 165.922-248.171 248.294 82.331 83.314 165.134 166.157 248.17 248.53 27.758-24.712 50.576-55.308 80.686-76.96 21.877 21.888 44.694 42.599 64.924 65.898-27.287 28.713-55.985 56.013-83.743 84.255-14.114 13.65-26.581 30.36-45.87 36.95-14.82 2.118-31.522 3.53-44.224-5.648-15.996-10.826-28.228-25.889-42.107-39.303-89.153-89.669-178.542-179.102-267.93-268.3-16.467-15.062-27.052-38.832-19.054-60.72 6.821-18.827 22.582-32.007 35.99-46.363z"/><path fill="#0040ff" d="M474.642 317.266c21.17-20.71 57.867-18.828 77.862 2.589l297.57 298.188c16.231 15.298 27.052 38.833 19.289 60.956-6.116 16.239-19.054 28.477-30.816 40.715L570.852 988.248c-15.055 14.827-30.815 33.42-53.163 35.302-28.463 4.001-49.163-19.534-67.511-37.655C372.08 906.817 293.277 828.68 215.18 749.603c-18.82-24.711-49.4-40.244-60.455-70.604-7.293-20.476.94-43.54 16.466-58.132 30.58-30.125 60.455-61.426 91.74-91.08 22.113 21.181 43.284 43.069 64.925 64.721-16.466 26.594-43.753 44.952-63.983 68.722 83.508 82.137 164.898 166.392 248.406 248.765 82.802-82.843 164.193-167.099 247.936-248.765-83.037-82.608-165.134-166.157-248.406-248.294-25.406 23.535-48.458 49.188-73.393 72.723-7.057 7.767-14.114-3.295-19.29-7.296-17.407-18.357-36.696-35.067-52.927-54.6 36.226-36.245 71.982-72.724 108.443-108.497z"/></svg>
