<svg xmlns="http://www.w3.org/2000/svg" width="1796" height="435" fill="#fff"><path d="M414.058 135.806h105.8v35.3c-34.3-.1-68.5 0-102.8.4-12.3 4.7-16.4 13.3-12.4 25.9 2.2 4.5 6.1 7.9 10.9 9.4 26.8 5.4 53.5 10.9 80.3 16.5a52.5 52.5 0 0 1 36.8 51 53 53 0 0 1-47.3 52.6c-35.8.4-71.5.5-107.3.4v-35.3c35.3.1 70.6 0 105.8-.4 12.9-5.4 16.5-14.5 10.9-27.4-2.7-4-6.9-6.8-11.6-7.9-26.8-5.2-53.6-10.7-80.3-16.5-25-11.3-36.6-30.6-34.9-58.2a55 55 0 0 1 46.1-45.8Zm213.9 0c11.8-.2 23.5 0 35.3.8l77.7 173.4c.4 5.8.5 11.5.4 17.3a325 325 0 0 1-31.2-.8l-64.6-142.6-64.5 142.6c-10.4.7-20.7 1-31.1.8-.1-6.3 0-12.5.4-18.8 26-57.5 51.8-115 77.6-172.7zm267.1 66.8v39.8h-35.3c.3-15.5 0-31-1.1-46.5a36.3 36.3 0 0 0-28.9-24.4c-33.3-.4-66.5-.5-99.8-.4v-35.3c34.3-.1 68.5 0 102.8.4a70.2 70.2 0 0 1 59.7 49.1 68.4 68.4 0 0 1 2.6 17.3zm96.8-66.8c11.8-.2 23.5 0 35.3.8l77.7 173.4c.4 5.8.5 11.5.4 17.3a322 322 0 0 1-31.1-.8l-64.5-142.6-64.6 142.6a361 361 0 0 1-31.2.8c-.1-6.3 0-12.5.4-18.8 26-57.5 51.9-115 77.6-172.7zm139.6 0h165.1v35.3h-129.8v156.1h-35.3zm378.2 73.6c-12.1.7-24.4 1-36.8.8-12-27.2-33-40.1-63-38.7a62.1 62.1 0 0 0-52.9 50.6c-2.7 30.6 9.7 52.5 37.2 65.7 28.2 9.2 51.8 2.6 70.9-19.9 3-4.5 5.6-9.3 7.9-14.3 12.2-.7 24.5-1 36.8-.8a96.9 96.9 0 0 1-69.8 71.7c-45.7 8.6-81.1-6.5-106.2-45.4a99 99 0 0 1-6.8-81c18.8-42.4 51.4-63 97.9-61.9a97.8 97.8 0 0 1 84.8 73.2zm32.3-72.8h34.5v190.6h-34.5z"/><path d="M1541.958 136.606c11.6-.7 23.4-1 35.3-.8.3 63.9 0 127.7-.8 191.4v-190.6Zm177.9 190.6v-190.6h-34.5v190.6c-.7-63.7-1-127.4-.8-191.4h36c.2 64 0 127.7-.7 191.4z"/><path d="M1719.858 327.206h-34.5v-190.6h34.5zm42-190.6h34.5v190.6h-34.5zm-500.6 77.3h35.3v35.3h-35.3zm393.3 35.3h-47.3v-34.5h47.3zm-887.8-15.8c10.5-.1 21 0 31.5.4 30.4 25.1 60.5 50.5 90.4 76.2.4 5.8.5 11.5.4 17.3a831 831 0 0 1-35.3-.4l-86.7-73.2c-.4-6.8-.5-13.5-.3-20.3z"/><path d="M133.858 9.506c6.6-6.9 16.5-11.8 26-8.4 5.3 2 9.9 5.4 13.8 9.4 37.7 38.2 76 75.9 113.5 114.3 7.7 7.3 17.2 14.9 18.7 26.1 1.5 9.5-4.9 17.6-11.2 23.9-12.1 11.5-23.4 23.7-35.6 35.1-9.4-8.9-18.4-18.3-27.6-27.4 7-11.5 18.7-19.2 27.3-29.4-35.9-34.5-70.2-70.5-105.7-105.4-35.2 35.1-70.2 70.5-105.5 105.5 35 35.4 70.2 70.6 105.5 105.6 11.8-10.5 21.5-23.5 34.3-32.7 9.3 9.3 19 18.1 27.6 28-11.6 12.2-23.8 23.8-35.6 35.8-6 5.8-11.3 12.9-19.5 15.7-6.3.9-13.4 1.5-18.8-2.4-6.8-4.6-12-11-17.9-16.7-37.9-38.1-75.9-76.1-113.9-114-7-6.4-11.5-16.5-8.1-25.8 2.9-8 9.6-13.6 15.3-19.7z"/><path d="M137.158 134.806c9-8.8 24.6-8 33.1 1.1l126.5 126.7c6.9 6.5 11.5 16.5 8.2 25.9-2.6 6.9-8.1 12.1-13.1 17.3l-113.8 114.1c-6.4 6.3-13.1 14.2-22.6 15-12.1 1.7-20.9-8.3-28.7-16-33.2-33.6-66.7-66.8-99.9-100.4-8-10.5-21-17.1-25.7-30-3.1-8.7.4-18.5 7-24.7 13-12.8 25.7-26.1 39-38.7 9.4 9 18.4 18.3 27.6 27.5-7 11.3-18.6 19.1-27.2 29.2 35.5 34.9 70.1 70.7 105.6 105.7 35.2-35.2 69.8-71 105.4-105.7-35.3-35.1-70.2-70.6-105.6-105.5-10.8 10-20.6 20.9-31.2 30.9-3 3.3-6-1.4-8.2-3.1-7.4-7.8-15.6-14.9-22.5-23.2 15.4-15.4 30.6-30.9 46.1-46.1z"/></svg>
